<svg height="453.557368" viewBox="0 0 35 72" width="220.479276" xmlns="http://www.w3.org/2000/svg"><g transform="matrix(.011864407 0 0 -.011864407 0 71.99999793)"><path d="m1730 5901c-51-51-100-137-100-178 0-12-4-25-10-28-5-3-10-2-10 4 0 16-120 140-168 173-43 30-72 31-72 4 0-8 20-29 44-45 40-28 146-137 146-150 0-4-53-6-118-7-137 0-227-24-227-59 0-24 16-24 100-1 86 23 194 21 256-5 27-12 49-24 49-28 0-3-30-33-66-65-37-33-88-93-115-133-59-91-129-266-129-323 0-23-3-40-7-38-64 33-92 40-145 36-45-3-66-11-94-34-105-85-111-233-11-321 66-58 153-67 226-22 18 11 34 19 35 17s11-30 22-62c10-32 35-86 55-119l36-60-59-40c-77-51-196-165-301-285-102-118-148-180-216-295-60-100-61-119-7-154l35-23-40-87c-54-115-77-177-160-423-38-113-69-217-69-231 0-34-12-43-84-65-109-34-202-145-225-266-14-79 28-148 92-148 19 0 27-9 39-39s25-44 52-55c37-16 58-13 114 16 21 11 26 9 40-10 14-18 116-315 191-552 13-42 22-56 38-58 14-2 24-12 27-30 33-164 45-360 34-523-4-70-25-204-48-317l-39-196-55-54c-72-71-100-138-100-243 0-66 3-82 26-116 28-43 75-77 121-88 15-4 27-11 27-16s63-9 140-9 140 4 140 9c0 4 46 11 103 13 112 6 164 22 212 67 28 27 37 29 135 34 75 3 118 10 150 25 152 68 150 223-4 325-80 53-227 124-295 143s-79 35-61 86c21 66 50 349 50 501 0 162-16 292-50 396-41 129-41 129 34 190 36 29 66 60 66 68s-13 31-29 51c-57 72-101 170-179 404-77 230-79 238-61 254 17 15 19 33 19 158 0 194 38 433 110 692 21 72 113 311 145 374 63 125 180 290 205 290 9 0 37-9 62-20 24-10 85-25 135-31 259-35 551 97 654 295 32 62 35 64 85 75 63 14 127 58 150 103 11 21 17 55 17 96 0 54-5 68-30 100-49 62-100 80-233 84-105 3-115 2-118-16-6-28 15-36 98-36 117-1 159-13 197-54 28-30 33-43 33-85 0-58-28-98-87-126-32-15-54-17-154-12-103 6-118 5-123-10-10-25 7-35 70-44 31-4 58-10 61-13 11-11-49-96-104-146-70-64-190-124-293-146-95-20-239-14-331 15-86 27-192 103-268 191-131 152-174 311-151 548 29 288 207 530 439 594 129 36 350 17 454-39 28-15 78-54 110-85 61-60 81-69 91-42 4 10-14 36-54 79-108 111-230 155-440 155-109 0-150-7-270-45-23-7-23-6-16 56 9 83 35 135 97 196 49 49 50 49 30 67-19 18-21 17-71-33zm-466-924 33-26 1-93 1-93-36-27c-66-51-160-33-203 37-28 46-25 141 6 176 57 65 133 75 198 26zm245-610c25-23 63-56 84-72l37-30-65-90c-120-164-261-498-310-730-9-44-25-116-35-160-31-129-41-210-48-375l-7-155-123 2-123 1-47 38c-26 21-51 43-55 49-16 21 28 216 84 367 41 113 148 360 163 378 7 8 38 67 68 131 65 137 107 200 217 328 45 52 81 102 81 111 0 31-29 32-57 2-138-149-243-300-302-435-19-42-38-77-44-77-12 0-155 79-162 89-6 11 80 153 152 250 80 106 284 314 367 372 38 27 71 49 74 49s26-19 51-43zm-545-752c20-8 36-17 36-19s-21-50-46-107c-106-237-181-471-198-611-6-55-5-57 112-153 109-89 144-154 105-197-43-47-105-8-158 100-26 56-45 82-56 82-28 0-30-12-14-95 29-151 14-230-43-223-51 6-68 102-41 225 13 57 5 81-25 70-22-9-37-71-43-175-5-79-8-95-26-107-47-33-87-12-87 43 0 48 36 164 60 195s26 55 3 64c-26 10-71-53-97-137-18-59-27-76-43-78-27-4-53 32-53 73 1 44 33 107 81 160 46 50 87 75 158 96 47 14 66 36 76 89 21 116 133 438 217 625 23 52 43 95 44 95s18-7 38-15zm351-1832c47-161 70-351 62-508-8-142-9-145-61-145h-41l3 172c3 142 0 195-18 297-11 68-28 140-35 159-21 49-19 58 18 70 52 16 55 15 72-45zm-126-104c36-137 44-220 37-386-3-87-10-185-16-218-5-33-15-100-21-150-16-133-14-128-65-153l-47-23 7 38c66 380 69 563 20 945-6 44-5 48 17 57 30 11 40-6 68-110zm-145 69c38-175 53-504 30-660l-6-38h-49-50l8 53c14 90 7 403-11 507-22 133-22 138 17 149 49 14 56 13 61-11zm302-750c-4-40-12-100-19-133-12-60-12-60-50-63-26-2-39 1-43 11-5 15 23 234 33 250 2 4 23 7 45 7h41zm-293-58c-4-58-42-219-59-246-15-25-71-39-90-23-8 6-12 14-10 18 2 3 16 65 31 136 37 182 29 167 83 163l47-3zm357-220c143-44 331-152 368-212 31-50 28-89-9-126-37-36-94-52-187-52h-68l-17 54c-30 95-145 180-324 240-53 18-98 37-100 42-2 6 23 26 56 45 54 32 65 35 133 34 43-1 104-11 148-25zm-281-140c130-42 168-61 240-118 50-40 81-87 81-121 0-14-15-39-38-61-29-29-50-40-92-48-85-16-408-24-455-11-59 16-101 52-121 104-16 44-16 50 1 126 14 59 27 89 51 117 31 36 34 37 115 43 46 3 86 6 89 7s61-16 129-38z"/><path d="m1934 5165c-44-44-24-125 33-125 29 0 53 32 53 71 0 65-46 94-86 54z"/><path d="m2524 5135c-21-21-25-32-20-57 3-17 11-37 17-45 30-36 89 5 89 62 0 28-5 37-30 50-29 15-31 15-56-10z"/><path d="m1701 4515c-70-20-121-52-121-75 0-32 20-33 73-4 50 28 58 29 182 29 154 0 183-11 271-103 50-53 55-55 70-40 16 16 16 19 1 42-34 51-92 99-155 129-57 26-79 31-166 34-69 2-118-2-155-12z"/></g></svg>